<svg version="1.1" id="Layer_1" xmlns="http://www.w3.org/2000/svg" xmlns:xlink="http://www.w3.org/1999/xlink" x="0px" y="0px"
	 width="100%" viewBox="0 0 1200 1200" enable-background="new 0 0 1200 1200" xml:space="preserve">
<path fill="#000000" opacity="1.000000" stroke="none" 
	d="
M550.000000,1201.000000 
	C366.666656,1201.000000 183.833328,1201.000000 1.000000,1201.000000 
	C1.000000,801.000000 1.000000,401.000000 1.000000,1.000000 
	C401.000000,1.000000 801.000000,1.000000 1201.000000,1.000000 
	C1201.000000,401.000000 1201.000000,801.000000 1201.000000,1201.000000 
	C984.166687,1201.000000 767.333313,1201.000000 550.000000,1201.000000 
M935.536499,951.000671 
	C936.702332,950.992004 937.911743,951.184753 939.027222,950.943298 
	C949.527588,948.670837 960.159790,946.839905 970.467590,943.883301 
	C987.811523,938.908447 1003.916016,931.267822 1015.449219,916.761353 
	C1019.194946,912.049866 1021.766418,906.167908 1023.885437,900.454285 
	C1027.236816,891.417419 1027.617554,881.881897 1025.949097,872.396667 
	C1024.643799,864.974915 1022.204529,858.017883 1016.858398,852.283875 
	C1010.976562,845.975281 1003.882935,841.879883 995.574402,840.048767 
	C977.914917,836.156860 965.809082,826.178772 958.582764,809.352173 
	C949.590088,788.412537 939.753601,767.829224 930.013000,747.218933 
	C922.298584,730.895996 914.121460,714.792419 906.257080,698.539490 
	C898.967468,683.474304 891.923584,668.289917 884.585632,653.248657 
	C873.795410,631.130859 862.932373,609.047485 851.930725,587.034241 
	C839.297546,561.756470 826.353149,536.633972 813.778137,511.327606 
	C801.890747,487.405243 788.268250,464.501373 772.796265,442.784760 
	C763.609192,429.889679 753.820801,417.246613 742.941772,405.781738 
	C731.545959,393.772278 718.564636,383.256104 703.820312,375.262726 
	C702.554688,374.576630 701.187073,373.772644 700.344788,372.661194 
	C694.633484,365.125061 689.047607,357.493896 683.427124,349.889038 
	C671.720703,334.049316 657.609924,320.725525 641.715210,309.117676 
	C623.925720,296.126068 604.068420,288.297119 582.345215,286.237823 
	C566.441040,284.730164 550.392761,285.973724 534.783020,290.030090 
	C507.365875,297.154724 486.741821,312.879486 473.892212,338.429382 
	C465.311066,355.491943 463.417328,373.967407 461.987366,392.580505 
	C461.055573,404.709167 461.149567,417.061615 458.740570,428.897888 
	C455.125305,446.661102 450.840088,464.457184 444.796417,481.515381 
	C436.679169,504.426300 427.071381,526.848145 417.279022,549.117432 
	C402.679382,582.319153 387.388550,615.217468 372.329865,648.216614 
	C367.662903,658.443665 362.934723,668.647522 357.988617,678.741516 
	C348.386444,698.337463 338.981628,718.044800 328.768555,737.321167 
	C322.490997,749.169495 313.907349,759.308777 300.889435,764.593567 
	C293.071960,767.767273 285.182007,770.782471 277.481262,774.219849 
	C249.590607,786.669617 245.838028,817.022278 255.567215,839.859253 
	C262.088287,855.165955 275.361725,863.428711 290.721802,867.871948 
	C302.845123,871.378967 315.358398,873.538025 327.918304,876.344910 
	C325.255402,886.057434 325.071381,896.576233 327.455414,906.939331 
	C331.728912,925.515747 344.742462,936.518005 361.683258,942.676453 
	C383.835022,950.729065 407.278687,952.891602 430.589844,953.751953 
	C452.636536,954.565613 474.761444,953.456543 496.846741,952.960083 
	C512.269531,952.613464 527.433105,950.153625 542.269592,945.952637 
	C555.558899,942.189758 568.365112,936.962585 578.259399,927.098938 
	C590.754150,914.642822 595.896118,899.569519 593.212646,881.551819 
	C590.828491,865.544556 582.343262,854.926941 568.074524,848.633301 
	C560.695007,845.378296 552.866760,843.140625 545.257690,840.449219 
	C544.316650,827.651428 547.087402,822.974976 559.317017,821.120056 
	C570.014954,819.497375 580.977661,819.534180 591.834534,819.185730 
	C592.848267,819.153259 594.352356,821.466553 594.926636,822.960571 
	C597.181763,828.826721 598.348267,835.255615 601.385498,840.649780 
	C610.441711,856.733582 625.990295,864.078613 642.817017,868.871155 
	C651.970581,871.478333 661.480286,872.835144 670.596802,874.708191 
	C670.332886,876.977783 670.180115,879.252014 669.790283,881.484863 
	C667.596497,894.051453 669.893311,905.829163 676.309082,916.734802 
	C685.671326,932.648865 701.117493,940.057922 717.869934,944.893188 
	C743.128052,952.183411 769.296814,953.476501 795.317749,953.788513 
	C834.895264,954.263306 874.490662,953.419434 914.075745,952.917969 
	C920.930969,952.831055 927.772522,951.668335 935.536499,951.000671 
M315.503204,579.009399 
	C314.650452,580.464539 313.797668,581.919739 312.196472,584.651978 
	C322.371063,577.817444 331.279175,571.833679 340.399353,565.707397 
	C343.811737,583.468628 347.132660,600.753784 350.453583,618.039001 
	C350.805603,617.997803 351.157623,617.956604 351.509644,617.915405 
	C354.846863,600.672852 358.184052,583.430298 361.609192,565.733398 
	C370.720093,571.856201 379.622498,577.838867 388.524933,583.821594 
	C388.717499,583.568420 388.910065,583.315308 389.102631,583.062134 
	C383.135223,574.203003 377.167816,565.343872 370.913513,556.058838 
	C385.478912,552.736511 399.691437,549.494751 413.903931,546.252930 
	C413.855835,545.909058 413.807709,545.565247 413.759583,545.221436 
	C399.511536,541.986877 385.263489,538.752319 370.804230,535.469849 
	C377.028229,526.229980 382.986237,517.384949 388.944275,508.539886 
	C388.665558,508.289856 388.386841,508.039825 388.108124,507.789795 
	C379.202637,513.808960 370.297150,519.828125 361.457916,525.802551 
	C358.098145,507.921753 354.811951,490.432465 351.525757,472.943176 
	C351.185608,472.993439 350.845459,473.043701 350.505280,473.093994 
	C347.192780,490.367401 343.880280,507.640778 340.421844,525.675171 
	C331.274536,519.522400 322.540588,513.647705 313.806641,507.773010 
	C313.563324,508.027924 313.319977,508.282867 313.076630,508.537781 
	C319.032013,517.444946 324.987427,526.352112 331.093506,535.484741 
	C316.693054,538.761108 302.504974,541.989197 288.316895,545.217224 
	C288.297089,545.576843 288.277283,545.936462 288.257477,546.296021 
	C302.409607,549.538147 316.561768,552.780273 331.057465,556.101074 
	C325.787659,563.939880 320.899292,571.211365 315.503204,579.009399 
z"/>
<path fill="#647CDF" opacity="1.000000" stroke="none" 
	d="
M935.078491,951.001587 
	C927.772522,951.668335 920.930969,952.831055 914.075745,952.917969 
	C874.490662,953.419434 834.895264,954.263306 795.317749,953.788513 
	C769.296814,953.476501 743.128052,952.183411 717.869934,944.893188 
	C701.117493,940.057922 685.671326,932.648865 676.309082,916.734802 
	C669.893311,905.829163 667.596497,894.051453 669.790283,881.484863 
	C670.180115,879.252014 670.332886,876.977783 670.596802,874.708191 
	C661.480286,872.835144 651.970581,871.478333 642.817017,868.871155 
	C625.990295,864.078613 610.441711,856.733582 601.385498,840.649780 
	C598.348267,835.255615 597.181763,828.826721 594.926636,822.960571 
	C594.352356,821.466553 592.848267,819.153259 591.834534,819.185730 
	C580.977661,819.534180 570.014954,819.497375 559.317017,821.120056 
	C547.087402,822.974976 544.316650,827.651428 545.257690,840.449219 
	C552.866760,843.140625 560.695007,845.378296 568.074524,848.633301 
	C582.343262,854.926941 590.828491,865.544556 593.212646,881.551819 
	C595.896118,899.569519 590.754150,914.642822 578.259399,927.098938 
	C568.365112,936.962585 555.558899,942.189758 542.269592,945.952637 
	C527.433105,950.153625 512.269531,952.613464 496.846741,952.960083 
	C474.761444,953.456543 452.636536,954.565613 430.589844,953.751953 
	C407.278687,952.891602 383.835022,950.729065 361.683258,942.676453 
	C344.742462,936.518005 331.728912,925.515747 327.455414,906.939331 
	C325.071381,896.576233 325.255402,886.057434 327.918304,876.344910 
	C315.358398,873.538025 302.845123,871.378967 290.721802,867.871948 
	C275.361725,863.428711 262.088287,855.165955 255.567215,839.859253 
	C245.838028,817.022278 249.590607,786.669617 277.481262,774.219849 
	C285.182007,770.782471 293.071960,767.767273 300.889435,764.593567 
	C313.907349,759.308777 322.490997,749.169495 328.768555,737.321167 
	C338.981628,718.044800 348.386444,698.337463 357.988617,678.741516 
	C362.934723,668.647522 367.662903,658.443665 372.329865,648.216614 
	C387.388550,615.217468 402.679382,582.319153 417.279022,549.117432 
	C427.071381,526.848145 436.679169,504.426300 444.796417,481.515381 
	C450.840088,464.457184 455.125305,446.661102 458.740570,428.897888 
	C461.149567,417.061615 461.055573,404.709167 461.987366,392.580505 
	C463.417328,373.967407 465.311066,355.491943 473.892212,338.429382 
	C486.741821,312.879486 507.365875,297.154724 534.783020,290.030090 
	C550.392761,285.973724 566.441040,284.730164 582.345215,286.237823 
	C604.068420,288.297119 623.925720,296.126068 641.715210,309.117676 
	C657.609924,320.725525 671.720703,334.049316 683.427124,349.889038 
	C689.047607,357.493896 694.633484,365.125061 700.344788,372.661194 
	C701.187073,373.772644 702.554688,374.576630 703.820312,375.262726 
	C718.564636,383.256104 731.545959,393.772278 742.941772,405.781738 
	C753.820801,417.246613 763.609192,429.889679 772.796265,442.784760 
	C788.268250,464.501373 801.890747,487.405243 813.778137,511.327606 
	C826.353149,536.633972 839.297546,561.756470 851.930725,587.034241 
	C862.932373,609.047485 873.795410,631.130859 884.585632,653.248657 
	C891.923584,668.289917 898.967468,683.474304 906.257080,698.539490 
	C914.121460,714.792419 922.298584,730.895996 930.013000,747.218933 
	C939.753601,767.829224 949.590088,788.412537 958.582764,809.352173 
	C965.809082,826.178772 977.914917,836.156860 995.574402,840.048767 
	C1003.882935,841.879883 1010.976562,845.975281 1016.858398,852.283875 
	C1022.204529,858.017883 1024.643799,864.974915 1025.949097,872.396667 
	C1027.617554,881.881897 1027.236816,891.417419 1023.885437,900.454285 
	C1021.766418,906.167908 1019.194946,912.049866 1015.449219,916.761353 
	C1003.916016,931.267822 987.811523,938.908447 970.467590,943.883301 
	C960.159790,946.839905 949.527588,948.670837 939.027222,950.943298 
	C937.911743,951.184753 936.702332,950.992004 935.078491,951.001587 
M311.011414,778.568054 
	C302.535034,782.032227 293.987122,785.333374 285.603699,789.009460 
	C278.208984,792.252075 271.674652,797.036438 269.560791,805.149048 
	C265.147522,822.086243 268.647919,839.433960 287.209320,848.069763 
	C299.136749,853.619080 311.760376,856.988525 324.712799,857.834290 
	C349.783691,859.471191 374.913422,860.581543 400.033508,860.980042 
	C422.572205,861.337646 444.963440,859.081299 466.541595,851.910278 
	C477.575470,848.243408 487.836182,843.124207 494.952545,833.384399 
	C504.601929,820.177673 503.969238,794.188049 481.334198,787.638428 
	C477.501831,786.529541 473.756897,785.121399 469.937347,783.964478 
	C454.875977,779.402100 450.907837,773.674927 452.051300,758.025085 
	C453.253998,741.563843 461.383942,731.881836 477.483063,728.406738 
	C483.149628,727.183594 489.019196,726.181335 494.783173,726.245117 
	C533.249878,726.670471 571.731079,726.926025 610.165955,728.355347 
	C621.246033,728.767334 632.540344,731.842529 643.106262,735.511536 
	C656.135010,740.035767 657.976379,752.040161 657.847534,763.978088 
	C657.740173,773.938293 650.422119,778.152222 642.265930,781.292603 
	C637.450073,783.146851 632.581238,784.906128 627.907532,787.077026 
	C620.916504,790.324341 615.151611,794.950562 612.614990,802.650696 
	C607.271362,818.871826 615.173462,837.681213 630.319397,845.638306 
	C650.624512,856.305908 672.883667,858.020996 695.038330,859.636658 
	C711.270996,860.820435 727.609558,860.940430 743.898682,860.884277 
	C782.500916,860.751282 821.182251,863.209961 859.652222,857.953674 
	C876.834106,855.606079 893.723450,851.938477 909.191956,843.793518 
	C925.921326,834.984802 935.401062,821.777893 933.077881,801.852112 
	C931.973267,792.378296 928.026367,785.471619 918.357483,782.700928 
	C914.694824,781.651489 911.163879,780.128906 907.485596,779.150085 
	C893.339783,775.385620 881.782349,767.653809 874.715088,754.917908 
	C866.595947,740.286438 859.629944,725.006470 852.369019,709.909119 
	C833.848755,671.400085 815.642151,632.739014 796.936157,594.320801 
	C777.786499,554.991394 758.102722,515.922363 738.817017,476.658752 
	C717.021729,432.285919 694.166992,388.574127 661.671387,350.781189 
	C648.664795,335.654388 633.789612,322.742218 615.866272,313.652740 
	C593.571838,302.346558 570.030579,300.719177 545.894470,305.272339 
	C518.589539,310.423248 497.921936,324.475159 487.026093,350.901764 
	C481.423004,364.491333 479.983551,378.830322 479.037842,393.375397 
	C478.014587,409.113312 476.929199,424.960083 474.133484,440.445679 
	C468.785339,470.069519 458.557587,498.343445 446.399475,525.775940 
	C423.863434,576.624329 400.948303,627.310974 377.567993,677.776306 
	C366.588379,701.475403 354.558350,724.716125 342.237030,747.754272 
	C335.269714,760.781555 326.055786,772.278442 311.011414,778.568054 
z"/>
<path fill="#FBD001" opacity="1.000000" stroke="none" 
	d="
M315.757080,578.746094 
	C320.899292,571.211365 325.787659,563.939880 331.057465,556.101074 
	C316.561768,552.780273 302.409607,549.538147 288.257477,546.296021 
	C288.277283,545.936462 288.297089,545.576843 288.316895,545.217224 
	C302.504974,541.989197 316.693054,538.761108 331.093506,535.484741 
	C324.987427,526.352112 319.032013,517.444946 313.076630,508.537781 
	C313.319977,508.282867 313.563324,508.027924 313.806641,507.773010 
	C322.540588,513.647705 331.274536,519.522400 340.421844,525.675171 
	C343.880280,507.640778 347.192780,490.367401 350.505280,473.093994 
	C350.845459,473.043701 351.185608,472.993439 351.525757,472.943176 
	C354.811951,490.432465 358.098145,507.921753 361.457916,525.802551 
	C370.297150,519.828125 379.202637,513.808960 388.108124,507.789795 
	C388.386841,508.039825 388.665558,508.289856 388.944275,508.539886 
	C382.986237,517.384949 377.028229,526.229980 370.804230,535.469849 
	C385.263489,538.752319 399.511536,541.986877 413.759583,545.221436 
	C413.807709,545.565247 413.855835,545.909058 413.903931,546.252930 
	C399.691437,549.494751 385.478912,552.736511 370.913513,556.058838 
	C377.167816,565.343872 383.135223,574.203003 389.102631,583.062134 
	C388.910065,583.315308 388.717499,583.568420 388.524933,583.821594 
	C379.622498,577.838867 370.720093,571.856201 361.609192,565.733398 
	C358.184052,583.430298 354.846863,600.672852 351.509644,617.915405 
	C351.157623,617.956604 350.805603,617.997803 350.453583,618.039001 
	C347.132660,600.753784 343.811737,583.468628 340.399353,565.707397 
	C331.279175,571.833679 322.371063,577.817444 312.196472,584.651978 
	C313.797668,581.919739 314.650452,580.464539 315.757080,578.746094 
z"/>
<path fill="#170D9F" opacity="1.000000" stroke="none" 
	d="
M311.342926,778.392456 
	C326.055786,772.278442 335.269714,760.781555 342.237030,747.754272 
	C354.558350,724.716125 366.588379,701.475403 377.567993,677.776306 
	C400.948303,627.310974 423.863434,576.624329 446.399475,525.775940 
	C458.557587,498.343445 468.785339,470.069519 474.133484,440.445679 
	C476.929199,424.960083 478.014587,409.113312 479.037842,393.375397 
	C479.983551,378.830322 481.423004,364.491333 487.026093,350.901764 
	C497.921936,324.475159 518.589539,310.423248 545.894470,305.272339 
	C570.030579,300.719177 593.571838,302.346558 615.866272,313.652740 
	C633.789612,322.742218 648.664795,335.654388 661.671387,350.781189 
	C694.166992,388.574127 717.021729,432.285919 738.817017,476.658752 
	C758.102722,515.922363 777.786499,554.991394 796.936157,594.320801 
	C815.642151,632.739014 833.848755,671.400085 852.369019,709.909119 
	C859.629944,725.006470 866.595947,740.286438 874.715088,754.917908 
	C881.782349,767.653809 893.339783,775.385620 907.485596,779.150085 
	C911.163879,780.128906 914.694824,781.651489 918.357483,782.700928 
	C928.026367,785.471619 931.973267,792.378296 933.077881,801.852112 
	C935.401062,821.777893 925.921326,834.984802 909.191956,843.793518 
	C893.723450,851.938477 876.834106,855.606079 859.652222,857.953674 
	C821.182251,863.209961 782.500916,860.751282 743.898682,860.884277 
	C727.609558,860.940430 711.270996,860.820435 695.038330,859.636658 
	C672.883667,858.020996 650.624512,856.305908 630.319397,845.638306 
	C615.173462,837.681213 607.271362,818.871826 612.614990,802.650696 
	C615.151611,794.950562 620.916504,790.324341 627.907532,787.077026 
	C632.581238,784.906128 637.450073,783.146851 642.265930,781.292603 
	C650.422119,778.152222 657.740173,773.938293 657.847534,763.978088 
	C657.976379,752.040161 656.135010,740.035767 643.106262,735.511536 
	C632.540344,731.842529 621.246033,728.767334 610.165955,728.355347 
	C571.731079,726.926025 533.249878,726.670471 494.783173,726.245117 
	C489.019196,726.181335 483.149628,727.183594 477.483063,728.406738 
	C461.383942,731.881836 453.253998,741.563843 452.051300,758.025085 
	C450.907837,773.674927 454.875977,779.402100 469.937347,783.964478 
	C473.756897,785.121399 477.501831,786.529541 481.334198,787.638428 
	C503.969238,794.188049 504.601929,820.177673 494.952545,833.384399 
	C487.836182,843.124207 477.575470,848.243408 466.541595,851.910278 
	C444.963440,859.081299 422.572205,861.337646 400.033508,860.980042 
	C374.913422,860.581543 349.783691,859.471191 324.712799,857.834290 
	C311.760376,856.988525 299.136749,853.619080 287.209320,848.069763 
	C268.647919,839.433960 265.147522,822.086243 269.560791,805.149048 
	C271.674652,797.036438 278.208984,792.252075 285.603699,789.009460 
	C293.987122,785.333374 302.535034,782.032227 311.342926,778.392456 
M509.540863,590.060608 
	C506.643005,598.552856 503.378448,606.941650 500.946930,615.565369 
	C498.338531,624.816650 502.176208,630.195679 511.675629,630.991211 
	C517.944641,631.516235 524.280212,631.309753 530.586121,631.319336 
	C551.061523,631.350403 571.538025,631.448242 592.011475,631.250427 
	C597.454041,631.197815 603.007935,630.695679 608.293762,629.466858 
	C614.695068,627.978821 616.718262,624.156982 615.148560,617.957458 
	C614.173035,614.104797 613.151855,610.143188 611.354736,606.638855 
	C600.656372,585.777283 589.966187,564.903564 578.732239,544.329407 
	C575.188110,537.838623 570.609314,531.630310 565.400391,526.389832 
	C554.616577,515.540710 544.533020,516.493958 535.941101,529.112366 
	C531.297913,535.931580 527.442749,543.440491 524.262024,551.067810 
	C519.017151,563.645081 514.607361,576.570496 509.540863,590.060608 
z"/>
<path fill="#647CDF" opacity="1.000000" stroke="none" 
	d="
M509.693207,589.704895 
	C514.607361,576.570496 519.017151,563.645081 524.262024,551.067810 
	C527.442749,543.440491 531.297913,535.931580 535.941101,529.112366 
	C544.533020,516.493958 554.616577,515.540710 565.400391,526.389832 
	C570.609314,531.630310 575.188110,537.838623 578.732239,544.329407 
	C589.966187,564.903564 600.656372,585.777283 611.354736,606.638855 
	C613.151855,610.143188 614.173035,614.104797 615.148560,617.957458 
	C616.718262,624.156982 614.695068,627.978821 608.293762,629.466858 
	C603.007935,630.695679 597.454041,631.197815 592.011475,631.250427 
	C571.538025,631.448242 551.061523,631.350403 530.586121,631.319336 
	C524.280212,631.309753 517.944641,631.516235 511.675629,630.991211 
	C502.176208,630.195679 498.338531,624.816650 500.946930,615.565369 
	C503.378448,606.941650 506.643005,598.552856 509.693207,589.704895 
z"/>
</svg>